<?xml version="1.0" standalone="no"?>
<!DOCTYPE svg PUBLIC "-//W3C//DTD SVG 20010904//EN"
 "http://www.w3.org/TR/2001/REC-SVG-20010904/DTD/svg10.dtd">
<svg version="1.0" xmlns="http://www.w3.org/2000/svg"
 width="200.000000pt" height="321.000000pt" viewBox="0 0 200.000000 321.000000"
 preserveAspectRatio="xMidYMid meet">
<metadata>
Created by potrace 1.15, written by Peter Selinger 2001-2017
</metadata>
<g transform="translate(0.000000,321.000000) scale(0.100000,-0.100000)"
fill="#000000" stroke="none">
<path d="M353 3002 l-303 -126 0 -1008 0 -1008 285 0 285 0 2 879 3 880 142
-59 c79 -32 164 -70 190 -86 114 -66 172 -152 159 -235 -15 -92 -128 -252
-245 -344 -27 -22 -50 -45 -51 -50 0 -6 13 -19 29 -28 57 -34 191 -137 232
-179 62 -63 93 -137 86 -203 -6 -55 -33 -117 -75 -173 -14 -18 -214 -211 -444
-430 l-420 -397 35 -30 c20 -16 110 -97 202 -180 91 -82 169 -150 174 -150 9
0 608 566 837 791 169 165 256 304 289 459 42 201 -7 359 -160 510 l-82 81 52
57 c106 117 149 234 143 391 -3 88 -8 109 -35 166 -78 160 -222 265 -578 420
-153 67 -434 180 -443 179 -4 0 -143 -58 -309 -127z m217 -337 l0 -125 -115 0
-115 0 0 125 0 125 115 0 115 0 0 -125z m-230 -260 l0 -125 -110 0 -110 0 0
125 0 125 110 0 110 0 0 -125z m250 -295 l0 -120 -115 0 -115 0 0 120 0 120
115 0 115 0 0 -120z m-260 -280 l0 -120 -110 0 -110 0 0 120 0 120 110 0 110
0 0 -120z m240 -255 l0 -125 -110 0 -110 0 0 125 0 125 110 0 110 0 0 -125z
m-240 -255 l0 -120 -110 0 -110 0 0 120 0 120 110 0 110 0 0 -120z m250 -260
l0 -120 -115 0 -115 0 0 120 0 120 115 0 115 0 0 -120z"/>
</g>
</svg>
